PathFileType	4	(X/Y/Z)	c:/Users/goper/Files/vsCode/490R/osim_files/C12/C12_Fast_06.trc
DataRate	CameraRate	NumFrames	NumMarkers	Units                	OrigDataRate	OrigDataStartFrame	OrigNumFrames
120.00	120.00	9	36	mm	120.0	595	951
                Frame#	Time	LPSIS			LASIS			LTH1			LTH2			LTH3			LTH4			LLFE			LMFE			LSH1			LSH2			LSH3			LSH4			LLMAL			LMMAL			LCAL			LMTP5			LTOE			LMTP1			RPSIS			RASIS			RTH1			RTH2			RTH3			RTH4			RLFE			RMFE			RSH1			RSH2			RSH3			RSH4			RLMAL			RMMAL			RCAL			RMTP1			RTOE			RMTP5		
		X1	Y1	Z1	X2	Y2	Z2	X3	Y3	Z3	X4	Y4	Z4	X5	Y5	Z5	X6	Y6	Z6	X7	Y7	Z7	X8	Y8	Z8	X9	Y9	Z9	X10	Y10	Z10	X11	Y11	Z11	X12	Y12	Z12	X13	Y13	Z13	X14	Y14	Z14	X15	Y15	Z15	X16	Y16	Z16	X17	Y17	Z17	X18	Y18	Z18	X19	Y19	Z19	X20	Y20	Z20	X21	Y21	Z21	X22	Y22	Z22	X23	Y23	Z23	X24	Y24	Z24	X25	Y25	Z25	X26	Y26	Z26	X27	Y27	Z27	X28	Y28	Z28	X29	Y29	Z29	X30	Y30	Z30	X31	Y31	Z31	X32	Y32	Z32	X33	Y33	Z33	X34	Y34	Z34	X35	Y35	Z35	X36	Y36	Z36

595	4.95000	-989.12427	1084.68921	292.63562	-1161.96313	1042.87122	355.70767	-1149.42700	764.50830	420.74146	-1171.33447	724.19867	420.28979	-1204.98022	789.53247	423.42670	-1220.24792	747.08014	423.50677	-1267.09827	570.14905	390.22586	-1280.83130	564.19513	264.56488	-1182.63928	502.66058	401.04779	-1162.54077	459.70200	407.90451	-1235.68909	472.38412	402.10138	-1207.55078	433.87659	405.12869	-1041.61841	189.25203	358.35587	-1064.46289	186.79807	280.95697	-979.90759	198.91280	311.64758	-1121.41370	65.75260	387.91312	-1189.15540	72.47916	328.63995	-1153.84680	60.72441	283.19882	-984.69611	1084.34473	178.11507	-1161.03418	1049.35718	103.72787	-1061.58386	758.23364	57.51054	-1068.01221	713.29968	67.35106	-1126.90259	757.32947	59.88609	-1123.70813	710.51990	67.45324	-1076.94910	535.03619	113.26761	-1075.38110	540.40088	246.63600	-1006.88885	442.21201	94.68953	-1004.28461	399.44925	90.33896	-1068.58289	430.83844	103.58440	-1056.84094	390.02661	95.87817	-989.25818	109.85261	145.11287	-1006.38263	121.93778	226.22571	-913.78772	77.18102	182.78773	-1126.24487	47.62047	229.36067	-1169.85193	65.60421	197.05272	-1134.71741	40.89749	121.49877
596	4.95833	-1000.96033	1084.00879	293.39932	-1174.18726	1042.62500	354.83676	-1163.39099	764.90753	420.66116	-1187.25195	725.18872	420.72321	-1219.94995	790.88806	423.44962	-1235.28979	748.67554	422.65646	-1283.79944	572.12476	388.57733	-1296.55298	566.43079	263.15738	-1201.40295	500.71890	399.68320	-1183.20068	457.06201	406.12650	-1255.10144	474.02731	401.73038	-1229.64026	433.17960	403.90289	-1075.97278	180.17711	358.24805	-1099.18164	178.55371	281.20984	-1013.72119	185.11829	311.07153	-1162.85938	62.22462	388.88483	-1230.13013	72.17962	329.45023	-1195.38892	57.66674	284.34497	-994.05042	1085.21289	182.96225	-1171.29443	1048.81787	103.36274	-1069.16431	758.53052	57.46170	-1074.79248	713.47485	67.36541	-1134.47290	756.57983	59.92186	-1130.52173	709.86444	67.52453	-1079.62415	535.05872	113.17756	-1078.64709	540.15485	246.52550	-1008.70416	442.68066	94.78088	-1005.89594	399.87491	90.42574	-1070.50476	430.99771	103.34816	-1058.21777	390.20435	95.79338	-989.78278	110.41381	145.30588	-1006.61511	121.75565	225.87842	-913.39551	78.71129	183.46548	-1125.38721	47.34929	228.29733	-1170.08459	65.35886	197.01872	-1134.85535	40.83798	121.51800
597	4.96667	-1012.81830	1082.97021	294.41772	-1186.31775	1042.09985	354.16354	-1179.51392	764.50232	420.74173	-1203.01965	725.56921	420.99249	-1234.91785	791.95819	423.15787	-1252.14990	750.00885	424.21115	-1300.13757	573.45526	387.00351	-1311.76245	567.97729	261.75803	-1220.09204	498.19583	398.36743	-1204.30200	454.24899	405.68362	-1275.19006	473.86243	400.35779	-1252.15564	432.24118	403.07965	-1110.92358	171.27808	358.12823	-1134.05237	170.67242	280.94370	-1050.07056	171.17735	308.78958	-1204.65234	58.89478	389.66324	-1271.18481	72.31021	330.22675	-1237.02356	55.25564	284.98087	-1005.86426	1084.54248	183.99992	-1182.62976	1048.34033	102.64060	-1076.75891	758.72357	57.44201	-1081.66406	713.63428	67.38229	-1142.11121	755.73389	60.08776	-1137.02246	709.03717	67.67802	-1082.30530	535.01678	113.11889	-1081.77026	539.97937	246.37321	-1010.69208	443.16205	94.89407	-1007.62585	400.30441	90.53818	-1072.29480	431.18777	103.30268	-1059.97266	390.50562	95.68491	-990.26740	110.92730	145.48506	-1007.21368	122.18353	226.01140	-914.84485	78.39300	183.03600	-1125.92834	47.54807	228.33467	-1170.30505	65.14062	196.97980	-1134.93970	40.76329	121.50849
598	4.97500	-1024.55310	1081.56641	295.48907	-1198.71191	1041.24719	353.44730	-1194.53003	764.41888	420.95346	-1217.52417	726.10657	420.71017	-1249.74927	792.52423	422.84668	-1266.88000	750.58075	423.39807	-1315.82520	574.17322	385.40079	-1326.57739	568.88281	260.24313	-1238.33765	495.24084	397.18115	-1224.84216	450.47974	404.57666	-1294.78882	473.28198	398.97433	-1273.09180	430.31870	401.87363	-1146.57715	162.47491	358.09625	-1169.23804	162.97194	280.87387	-1085.31860	157.58672	309.02222	-1246.52649	56.27717	390.20221	-1312.16565	72.92246	330.51859	-1279.24792	53.71010	285.27338	-1017.54541	1083.49585	185.04022	-1194.24524	1047.70264	101.98133	-1084.58423	758.86493	57.41141	-1088.69751	713.76251	67.42464	-1149.90771	754.89465	60.41106	-1143.59497	708.32520	67.74244	-1084.73657	535.05481	113.10278	-1085.41931	539.67371	245.85797	-1012.62994	443.67184	94.88113	-1009.39691	400.92575	90.51754	-1074.09106	431.43750	103.23735	-1061.67798	390.72705	95.69016	-990.71576	111.59001	145.55582	-1007.30481	122.68988	226.28220	-915.16760	79.11842	183.12852	-1126.11511	47.48717	228.30467	-1170.55908	65.07162	196.84903	-1135.01477	40.68175	121.51098
599	4.98333	-1036.42371	1079.83801	296.76593	-1211.00061	1040.16248	352.84409	-1209.34204	763.89960	420.90182	-1232.84521	725.81238	420.31488	-1264.65088	792.48853	422.80533	-1281.57263	751.63745	422.93243	-1331.17871	574.15472	383.79727	-1340.90466	569.29108	258.75433	-1256.38391	491.73953	396.15906	-1245.33118	446.37656	403.70496	-1314.38525	472.38528	397.75943	-1293.78674	428.01208	400.80511	-1182.67651	154.07535	358.13513	-1205.01880	155.58130	280.71329	-1122.21619	145.76158	309.79169	-1288.64014	54.31017	390.45908	-1352.98181	74.11777	330.64032	-1321.08704	53.15019	286.12100	-1029.27197	1082.25354	186.71841	-1205.62781	1046.86743	101.48666	-1091.53186	758.99475	57.08460	-1095.68652	713.80432	67.55248	-1157.78784	753.97589	60.72198	-1150.72009	707.47705	68.15538	-1087.26440	535.19861	112.96443	-1089.06116	539.59222	245.53502	-1014.73010	444.23645	94.91727	-1011.29578	401.44180	90.58889	-1076.23193	431.75513	103.12384	-1063.40735	391.09888	95.63913	-991.10889	112.21271	145.62669	-1007.94556	123.11430	226.34889	-915.54187	79.95151	183.37025	-1126.82483	47.16912	228.15781	-1170.56763	64.73369	196.93645	-1135.07959	40.53298	121.55805
600	4.99167	-1048.39539	1077.81799	298.10559	-1222.73303	1038.76160	352.10431	-1223.17249	762.72113	420.16684	-1246.70886	724.27301	419.27289	-1279.23657	791.86932	422.39514	-1296.11487	751.02252	422.07178	-1345.90088	573.69275	382.20322	-1354.81689	569.19617	257.16788	-1274.07898	487.80096	395.27237	-1265.52026	441.80862	402.90863	-1333.17419	471.04849	396.48550	-1314.09204	425.49432	399.70865	-1219.02136	146.23717	358.06387	-1240.80896	148.68022	280.31180	-1158.87439	134.06770	309.73907	-1330.82678	53.10565	390.49734	-1393.58618	76.30725	330.49695	-1362.83350	53.27098	286.04953	-1041.20911	1080.57751	188.13960	-1217.22961	1045.86194	100.94286	-1099.53760	758.84399	57.15998	-1102.72095	713.61597	67.67805	-1165.28979	752.76813	60.80243	-1157.39832	706.46973	68.65181	-1089.96436	535.32971	112.83208	-1093.40710	539.36139	244.82724	-1016.47424	444.85428	95.06815	-1013.23511	402.06314	90.62787	-1078.26807	431.91479	103.18005	-1065.28723	391.39035	95.66809	-991.62091	112.82571	145.74155	-1008.50323	123.57654	226.47604	-915.86743	80.66874	183.51782	-1126.95129	47.09616	228.11922	-1170.85278	64.47917	196.92921	-1135.17041	40.43805	121.52915
601	5.00000	-1060.41785	1075.53699	299.40915	-1236.51672	1037.49341	352.39481	-1237.44238	760.70050	419.78885	-1262.31885	723.09381	418.64905	-1293.34473	790.62415	421.73047	-1310.56287	749.83044	420.99371	-1359.90881	572.55078	380.57895	-1368.90869	567.54724	255.57626	-1291.49536	483.43164	394.37939	-1285.49902	436.94885	402.02014	-1351.58704	469.41681	395.17291	-1336.55481	425.16568	398.52731	-1255.55444	139.01625	358.01923	-1276.93921	142.49710	280.12195	-1195.38062	122.67651	309.38153	-1373.33752	53.09346	390.39990	-1434.02051	79.78529	329.70956	-1404.47498	54.55019	285.73740	-1052.75122	1079.23987	189.55717	-1228.64478	1044.57373	100.46651	-1107.26221	758.49725	57.13364	-1110.17053	713.02271	67.77131	-1172.91309	751.49792	61.11697	-1164.37097	705.35852	69.01926	-1092.84766	535.44238	112.74957	-1097.24939	539.26935	244.24138	-1018.92438	445.40247	95.04659	-1015.24823	402.48270	90.69678	-1080.58374	431.92850	103.47105	-1067.10828	391.74576	95.71980	-992.12213	113.40327	145.80437	-1008.93317	124.13390	226.59302	-916.16278	81.53209	183.55566	-1126.89929	47.01995	228.08731	-1171.08337	64.28890	196.81950	-1135.22864	40.34778	121.46451
602	5.00833	-1072.60132	1073.10034	300.72162	-1248.78320	1035.65588	351.67972	-1252.72839	759.12280	419.30386	-1276.50244	721.28326	417.36935	-1307.39453	788.86804	420.96841	-1324.49023	748.09546	419.81116	-1373.30933	570.83508	378.95734	-1381.34314	566.60663	254.15355	-1308.68066	478.49850	393.54086	-1305.49512	431.22568	401.08994	-1369.02551	468.44217	392.84076	-1357.06909	422.81619	397.39413	-1292.52234	132.49788	357.91345	-1313.83765	137.66986	278.48788	-1232.84619	112.38695	309.63214	-1415.21985	54.08564	390.00177	-1473.86963	84.03700	328.82944	-1445.83130	56.98711	285.13422	-1067.20264	1075.84705	187.00050	-1240.43665	1043.09021	100.07723	-1115.06262	758.08862	57.08036	-1115.15613	713.61066	67.19576	-1180.46179	750.07037	61.24685	-1170.97717	704.10339	69.33165	-1095.94543	535.58264	112.68345	-1101.33728	539.09204	243.68477	-1021.51324	445.87698	95.06539	-1017.25885	403.12585	90.72221	-1082.82507	432.23218	103.37254	-1069.18201	391.98630	95.76376	-992.58704	114.12648	145.87621	-1009.56793	124.73771	226.72894	-916.56305	82.66790	183.80750	-1127.03381	47.01016	228.03232	-1171.37036	64.02328	196.82333	-1135.32507	40.32706	121.35953
603	5.01667	-1085.05396	1070.36304	302.03506	-1261.20972	1033.66797	351.39993	-1266.44849	756.78925	418.37265	-1289.93896	718.88953	415.96899	-1321.12427	786.36652	420.23914	-1338.21411	745.65741	418.56351	-1386.23596	568.61810	377.33310	-1393.87378	564.56946	252.38850	-1325.78833	473.24078	392.75558	-1325.31665	425.87350	400.41748	-1386.57104	466.67044	391.53717	-1377.26770	420.53796	396.37750	-1329.66943	126.74898	357.83133	-1349.40540	133.21236	279.71393	-1271.62354	103.32988	310.88815	-1456.94177	56.26545	389.25488	-1513.53503	89.55591	327.77469	-1486.87024	60.83342	284.28745	-1076.93860	1074.83691	192.38780	-1252.18311	1041.30615	99.70022	-1122.66638	757.59961	57.14714	-1121.80615	713.27075	67.21967	-1187.83582	748.58173	61.31857	-1177.60986	702.78253	69.46419	-1099.23035	535.62842	112.69236	-1105.40405	538.59174	243.68307	-1024.22070	446.43817	95.16917	-1019.52966	403.72702	90.93015	-1085.22729	432.46158	103.42118	-1071.39246	392.30136	95.78111	-993.10181	114.82964	146.07704	-1010.22302	125.29044	226.88434	-917.28082	83.17698	184.06389	-1127.20166	46.90514	227.94853	-1171.33972	64.11554	195.81793	-1135.59302	40.35424	121.29222
